<mxfile host="app.diagrams.net" modified="2023-10-02T18:33:46.474Z" agent="Mozilla/5.0 (Windows NT 10.0; Win64; x64) AppleWebKit/537.36 (KHTML, like Gecko) Chrome/117.0.0.0 Safari/537.36" etag="VwmizE3ktfNg4lzaGt7I" version="22.0.1" type="device" pages="2">
  <diagram name="DER" id="TaJgRArM--vg4nSoCr_Q">
    <mxGraphModel dx="1100" dy="598" grid="1" gridSize="10" guides="1" tooltips="1" connect="1" arrows="1" fold="1" page="1" pageScale="1" pageWidth="827" pageHeight="1169" math="0" shadow="0">
      <root>
        <mxCell id="0" />
        <mxCell id="1" parent="0" />
        <mxCell id="uONhEowhPErGaNO6G9gl-16" style="edgeStyle=orthogonalEdgeStyle;rounded=0;orthogonalLoop=1;jettySize=auto;html=1;endArrow=none;endFill=0;" edge="1" parent="1" source="uONhEowhPErGaNO6G9gl-9" target="uONhEowhPErGaNO6G9gl-13">
          <mxGeometry relative="1" as="geometry" />
        </mxCell>
        <mxCell id="uONhEowhPErGaNO6G9gl-21" style="edgeStyle=orthogonalEdgeStyle;rounded=0;orthogonalLoop=1;jettySize=auto;html=1;entryX=0;entryY=0.5;entryDx=0;entryDy=0;endArrow=none;endFill=0;" edge="1" parent="1" source="uONhEowhPErGaNO6G9gl-9" target="uONhEowhPErGaNO6G9gl-20">
          <mxGeometry relative="1" as="geometry" />
        </mxCell>
        <mxCell id="uONhEowhPErGaNO6G9gl-9" value="USUARIO" style="rounded=0;whiteSpace=wrap;html=1;" vertex="1" parent="1">
          <mxGeometry x="14" y="58" width="120" height="60" as="geometry" />
        </mxCell>
        <mxCell id="uONhEowhPErGaNO6G9gl-28" style="edgeStyle=orthogonalEdgeStyle;rounded=0;orthogonalLoop=1;jettySize=auto;html=1;entryX=0;entryY=0.5;entryDx=0;entryDy=0;endArrow=none;endFill=0;" edge="1" parent="1" source="uONhEowhPErGaNO6G9gl-11" target="uONhEowhPErGaNO6G9gl-29">
          <mxGeometry relative="1" as="geometry">
            <mxPoint x="294" y="218" as="targetPoint" />
          </mxGeometry>
        </mxCell>
        <mxCell id="uONhEowhPErGaNO6G9gl-11" value="LISTA REPRODUCCION" style="rounded=0;whiteSpace=wrap;html=1;" vertex="1" parent="1">
          <mxGeometry x="14" y="268" width="120" height="60" as="geometry" />
        </mxCell>
        <mxCell id="uONhEowhPErGaNO6G9gl-18" style="edgeStyle=orthogonalEdgeStyle;rounded=0;orthogonalLoop=1;jettySize=auto;html=1;entryX=0.5;entryY=0;entryDx=0;entryDy=0;endArrow=none;endFill=0;" edge="1" parent="1" source="uONhEowhPErGaNO6G9gl-13" target="uONhEowhPErGaNO6G9gl-11">
          <mxGeometry relative="1" as="geometry">
            <mxPoint x="84" y="258" as="targetPoint" />
          </mxGeometry>
        </mxCell>
        <mxCell id="uONhEowhPErGaNO6G9gl-13" value="CREA" style="rhombus;whiteSpace=wrap;html=1;" vertex="1" parent="1">
          <mxGeometry x="34" y="188" width="80" height="50" as="geometry" />
        </mxCell>
        <mxCell id="uONhEowhPErGaNO6G9gl-25" style="edgeStyle=orthogonalEdgeStyle;rounded=0;orthogonalLoop=1;jettySize=auto;html=1;entryX=0.5;entryY=0;entryDx=0;entryDy=0;endArrow=none;endFill=0;" edge="1" parent="1" source="uONhEowhPErGaNO6G9gl-19" target="uONhEowhPErGaNO6G9gl-24">
          <mxGeometry relative="1" as="geometry" />
        </mxCell>
        <mxCell id="uONhEowhPErGaNO6G9gl-19" value="MUSICA" style="rounded=0;whiteSpace=wrap;html=1;" vertex="1" parent="1">
          <mxGeometry x="376.5" y="58" width="120" height="60" as="geometry" />
        </mxCell>
        <mxCell id="uONhEowhPErGaNO6G9gl-22" style="edgeStyle=orthogonalEdgeStyle;rounded=0;orthogonalLoop=1;jettySize=auto;html=1;endArrow=none;endFill=0;" edge="1" parent="1" source="uONhEowhPErGaNO6G9gl-20" target="uONhEowhPErGaNO6G9gl-19">
          <mxGeometry relative="1" as="geometry" />
        </mxCell>
        <mxCell id="uONhEowhPErGaNO6G9gl-20" value="REGISTRA" style="rhombus;whiteSpace=wrap;html=1;" vertex="1" parent="1">
          <mxGeometry x="234" y="63" width="80" height="50" as="geometry" />
        </mxCell>
        <mxCell id="uONhEowhPErGaNO6G9gl-23" value="GENERO" style="rounded=0;whiteSpace=wrap;html=1;" vertex="1" parent="1">
          <mxGeometry x="594" y="208" width="120" height="60" as="geometry" />
        </mxCell>
        <mxCell id="uONhEowhPErGaNO6G9gl-26" style="edgeStyle=orthogonalEdgeStyle;rounded=0;orthogonalLoop=1;jettySize=auto;html=1;endArrow=none;endFill=0;" edge="1" parent="1" source="uONhEowhPErGaNO6G9gl-24" target="uONhEowhPErGaNO6G9gl-23">
          <mxGeometry relative="1" as="geometry" />
        </mxCell>
        <mxCell id="uONhEowhPErGaNO6G9gl-24" value="PERTENECE" style="rhombus;whiteSpace=wrap;html=1;" vertex="1" parent="1">
          <mxGeometry x="594" y="108" width="120" height="60" as="geometry" />
        </mxCell>
        <mxCell id="yg2QsMOfh_LwWCvLEFbT-2" style="edgeStyle=orthogonalEdgeStyle;rounded=0;orthogonalLoop=1;jettySize=auto;html=1;entryX=0.75;entryY=1;entryDx=0;entryDy=0;endArrow=none;endFill=0;" edge="1" parent="1" source="uONhEowhPErGaNO6G9gl-29" target="uONhEowhPErGaNO6G9gl-19">
          <mxGeometry relative="1" as="geometry" />
        </mxCell>
        <mxCell id="uONhEowhPErGaNO6G9gl-29" value="CONTIENE" style="rhombus;whiteSpace=wrap;html=1;" vertex="1" parent="1">
          <mxGeometry x="369" y="273" width="135" height="50" as="geometry" />
        </mxCell>
        <mxCell id="uONhEowhPErGaNO6G9gl-32" value="DER" style="text;html=1;strokeColor=none;fillColor=none;align=center;verticalAlign=middle;whiteSpace=wrap;rounded=0;" vertex="1" parent="1">
          <mxGeometry x="30" y="30" width="60" height="30" as="geometry" />
        </mxCell>
        <mxCell id="uONhEowhPErGaNO6G9gl-33" value="ENTIDAD -&amp;nbsp; RELACIÓN - CARDINALIDAD" style="text;html=1;strokeColor=none;fillColor=none;align=center;verticalAlign=middle;whiteSpace=wrap;rounded=0;" vertex="1" parent="1">
          <mxGeometry x="230" y="10" width="340" height="30" as="geometry" />
        </mxCell>
        <mxCell id="uONhEowhPErGaNO6G9gl-36" value="UNO A UNO&lt;br&gt;UNO A MUCHOS&lt;br&gt;MUCHOS A MUCHOS" style="text;html=1;strokeColor=none;fillColor=none;align=center;verticalAlign=middle;whiteSpace=wrap;rounded=0;" vertex="1" parent="1">
          <mxGeometry x="690" y="10" width="130" height="50" as="geometry" />
        </mxCell>
        <mxCell id="uONhEowhPErGaNO6G9gl-37" value="1:N" style="text;html=1;strokeColor=none;fillColor=none;align=center;verticalAlign=middle;whiteSpace=wrap;rounded=0;" vertex="1" parent="1">
          <mxGeometry x="60" y="243" width="60" height="30" as="geometry" />
        </mxCell>
        <mxCell id="uONhEowhPErGaNO6G9gl-38" value="1:1" style="text;html=1;strokeColor=none;fillColor=none;align=center;verticalAlign=middle;whiteSpace=wrap;rounded=0;" vertex="1" parent="1">
          <mxGeometry x="60" y="113" width="60" height="30" as="geometry" />
        </mxCell>
        <mxCell id="uONhEowhPErGaNO6G9gl-40" value="0:N" style="text;html=1;strokeColor=none;fillColor=none;align=center;verticalAlign=middle;whiteSpace=wrap;rounded=0;" vertex="1" parent="1">
          <mxGeometry x="330" y="58" width="60" height="30" as="geometry" />
        </mxCell>
        <mxCell id="uONhEowhPErGaNO6G9gl-41" value="1:1" style="text;html=1;strokeColor=none;fillColor=none;align=center;verticalAlign=middle;whiteSpace=wrap;rounded=0;" vertex="1" parent="1">
          <mxGeometry x="120" y="63" width="60" height="30" as="geometry" />
        </mxCell>
        <mxCell id="uONhEowhPErGaNO6G9gl-42" value="1:1" style="text;html=1;strokeColor=none;fillColor=none;align=center;verticalAlign=middle;whiteSpace=wrap;rounded=0;" vertex="1" parent="1">
          <mxGeometry x="640" y="178" width="60" height="30" as="geometry" />
        </mxCell>
        <mxCell id="uONhEowhPErGaNO6G9gl-43" value="1:N" style="text;html=1;strokeColor=none;fillColor=none;align=center;verticalAlign=middle;whiteSpace=wrap;rounded=0;" vertex="1" parent="1">
          <mxGeometry x="490" y="63" width="60" height="30" as="geometry" />
        </mxCell>
        <mxCell id="uONhEowhPErGaNO6G9gl-44" style="edgeStyle=orthogonalEdgeStyle;rounded=0;orthogonalLoop=1;jettySize=auto;html=1;exitX=0.5;exitY=1;exitDx=0;exitDy=0;" edge="1" parent="1" source="uONhEowhPErGaNO6G9gl-43" target="uONhEowhPErGaNO6G9gl-43">
          <mxGeometry relative="1" as="geometry" />
        </mxCell>
        <mxCell id="uONhEowhPErGaNO6G9gl-46" value="0:N" style="text;html=1;strokeColor=none;fillColor=none;align=center;verticalAlign=middle;whiteSpace=wrap;rounded=0;" vertex="1" parent="1">
          <mxGeometry x="390" y="118" width="60" height="30" as="geometry" />
        </mxCell>
        <mxCell id="uONhEowhPErGaNO6G9gl-48" value="N:M" style="text;html=1;strokeColor=none;fillColor=none;align=center;verticalAlign=middle;whiteSpace=wrap;rounded=0;" vertex="1" parent="1">
          <mxGeometry x="640" y="88" width="60" height="30" as="geometry" />
        </mxCell>
        <mxCell id="uONhEowhPErGaNO6G9gl-49" value="N:M" style="text;html=1;strokeColor=none;fillColor=none;align=center;verticalAlign=middle;whiteSpace=wrap;rounded=0;" vertex="1" parent="1">
          <mxGeometry x="369" y="260" width="60" height="30" as="geometry" />
        </mxCell>
        <mxCell id="uONhEowhPErGaNO6G9gl-50" value="1:N" style="text;html=1;strokeColor=none;fillColor=none;align=center;verticalAlign=middle;whiteSpace=wrap;rounded=0;" vertex="1" parent="1">
          <mxGeometry x="110" y="198" width="60" height="30" as="geometry" />
        </mxCell>
      </root>
    </mxGraphModel>
  </diagram>
  <diagram id="4Pm7JRUq53A4Tqw6La8S" name="Página-2">
    <mxGraphModel dx="1257" dy="683" grid="1" gridSize="10" guides="1" tooltips="1" connect="1" arrows="1" fold="1" page="1" pageScale="1" pageWidth="827" pageHeight="1169" math="0" shadow="0">
      <root>
        <mxCell id="0" />
        <mxCell id="1" parent="0" />
        <mxCell id="1ka-kstYS4A2FUigY-aL-2" style="edgeStyle=orthogonalEdgeStyle;rounded=0;orthogonalLoop=1;jettySize=auto;html=1;startArrow=ERone;startFill=0;endArrow=ERmany;endFill=0;" edge="1" parent="1" source="s3GmxlX4lA9JoeD382dG-8" target="s3GmxlX4lA9JoeD382dG-34">
          <mxGeometry relative="1" as="geometry" />
        </mxCell>
        <mxCell id="s3GmxlX4lA9JoeD382dG-8" value="USUARIO" style="shape=table;startSize=30;container=1;collapsible=1;childLayout=tableLayout;fixedRows=1;rowLines=0;fontStyle=1;align=center;resizeLast=1;html=1;" vertex="1" parent="1">
          <mxGeometry x="50" y="60" width="180" height="150" as="geometry" />
        </mxCell>
        <mxCell id="s3GmxlX4lA9JoeD382dG-9" value="" style="shape=tableRow;horizontal=0;startSize=0;swimlaneHead=0;swimlaneBody=0;fillColor=none;collapsible=0;dropTarget=0;points=[[0,0.5],[1,0.5]];portConstraint=eastwest;top=0;left=0;right=0;bottom=1;" vertex="1" parent="s3GmxlX4lA9JoeD382dG-8">
          <mxGeometry y="30" width="180" height="30" as="geometry" />
        </mxCell>
        <mxCell id="s3GmxlX4lA9JoeD382dG-10" value="PK" style="shape=partialRectangle;connectable=0;fillColor=none;top=0;left=0;bottom=0;right=0;fontStyle=1;overflow=hidden;whiteSpace=wrap;html=1;" vertex="1" parent="s3GmxlX4lA9JoeD382dG-9">
          <mxGeometry width="30" height="30" as="geometry">
            <mxRectangle width="30" height="30" as="alternateBounds" />
          </mxGeometry>
        </mxCell>
        <mxCell id="s3GmxlX4lA9JoeD382dG-11" value="NICKNAME" style="shape=partialRectangle;connectable=0;fillColor=none;top=0;left=0;bottom=0;right=0;align=left;spacingLeft=6;fontStyle=5;overflow=hidden;whiteSpace=wrap;html=1;" vertex="1" parent="s3GmxlX4lA9JoeD382dG-9">
          <mxGeometry x="30" width="150" height="30" as="geometry">
            <mxRectangle width="150" height="30" as="alternateBounds" />
          </mxGeometry>
        </mxCell>
        <mxCell id="s3GmxlX4lA9JoeD382dG-12" value="" style="shape=tableRow;horizontal=0;startSize=0;swimlaneHead=0;swimlaneBody=0;fillColor=none;collapsible=0;dropTarget=0;points=[[0,0.5],[1,0.5]];portConstraint=eastwest;top=0;left=0;right=0;bottom=0;" vertex="1" parent="s3GmxlX4lA9JoeD382dG-8">
          <mxGeometry y="60" width="180" height="30" as="geometry" />
        </mxCell>
        <mxCell id="s3GmxlX4lA9JoeD382dG-13" value="" style="shape=partialRectangle;connectable=0;fillColor=none;top=0;left=0;bottom=0;right=0;editable=1;overflow=hidden;whiteSpace=wrap;html=1;" vertex="1" parent="s3GmxlX4lA9JoeD382dG-12">
          <mxGeometry width="30" height="30" as="geometry">
            <mxRectangle width="30" height="30" as="alternateBounds" />
          </mxGeometry>
        </mxCell>
        <mxCell id="s3GmxlX4lA9JoeD382dG-14" value="Row 1" style="shape=partialRectangle;connectable=0;fillColor=none;top=0;left=0;bottom=0;right=0;align=left;spacingLeft=6;overflow=hidden;whiteSpace=wrap;html=1;" vertex="1" parent="s3GmxlX4lA9JoeD382dG-12">
          <mxGeometry x="30" width="150" height="30" as="geometry">
            <mxRectangle width="150" height="30" as="alternateBounds" />
          </mxGeometry>
        </mxCell>
        <mxCell id="s3GmxlX4lA9JoeD382dG-15" value="" style="shape=tableRow;horizontal=0;startSize=0;swimlaneHead=0;swimlaneBody=0;fillColor=none;collapsible=0;dropTarget=0;points=[[0,0.5],[1,0.5]];portConstraint=eastwest;top=0;left=0;right=0;bottom=0;" vertex="1" parent="s3GmxlX4lA9JoeD382dG-8">
          <mxGeometry y="90" width="180" height="30" as="geometry" />
        </mxCell>
        <mxCell id="s3GmxlX4lA9JoeD382dG-16" value="" style="shape=partialRectangle;connectable=0;fillColor=none;top=0;left=0;bottom=0;right=0;editable=1;overflow=hidden;whiteSpace=wrap;html=1;" vertex="1" parent="s3GmxlX4lA9JoeD382dG-15">
          <mxGeometry width="30" height="30" as="geometry">
            <mxRectangle width="30" height="30" as="alternateBounds" />
          </mxGeometry>
        </mxCell>
        <mxCell id="s3GmxlX4lA9JoeD382dG-17" value="Row 2" style="shape=partialRectangle;connectable=0;fillColor=none;top=0;left=0;bottom=0;right=0;align=left;spacingLeft=6;overflow=hidden;whiteSpace=wrap;html=1;" vertex="1" parent="s3GmxlX4lA9JoeD382dG-15">
          <mxGeometry x="30" width="150" height="30" as="geometry">
            <mxRectangle width="150" height="30" as="alternateBounds" />
          </mxGeometry>
        </mxCell>
        <mxCell id="s3GmxlX4lA9JoeD382dG-18" value="" style="shape=tableRow;horizontal=0;startSize=0;swimlaneHead=0;swimlaneBody=0;fillColor=none;collapsible=0;dropTarget=0;points=[[0,0.5],[1,0.5]];portConstraint=eastwest;top=0;left=0;right=0;bottom=0;" vertex="1" parent="s3GmxlX4lA9JoeD382dG-8">
          <mxGeometry y="120" width="180" height="30" as="geometry" />
        </mxCell>
        <mxCell id="s3GmxlX4lA9JoeD382dG-19" value="" style="shape=partialRectangle;connectable=0;fillColor=none;top=0;left=0;bottom=0;right=0;editable=1;overflow=hidden;whiteSpace=wrap;html=1;" vertex="1" parent="s3GmxlX4lA9JoeD382dG-18">
          <mxGeometry width="30" height="30" as="geometry">
            <mxRectangle width="30" height="30" as="alternateBounds" />
          </mxGeometry>
        </mxCell>
        <mxCell id="s3GmxlX4lA9JoeD382dG-20" value="Row 3" style="shape=partialRectangle;connectable=0;fillColor=none;top=0;left=0;bottom=0;right=0;align=left;spacingLeft=6;overflow=hidden;whiteSpace=wrap;html=1;" vertex="1" parent="s3GmxlX4lA9JoeD382dG-18">
          <mxGeometry x="30" width="150" height="30" as="geometry">
            <mxRectangle width="150" height="30" as="alternateBounds" />
          </mxGeometry>
        </mxCell>
        <mxCell id="1ka-kstYS4A2FUigY-aL-17" style="edgeStyle=orthogonalEdgeStyle;rounded=0;orthogonalLoop=1;jettySize=auto;html=1;startArrow=ERone;startFill=0;endArrow=ERmany;endFill=0;" edge="1" parent="1" source="s3GmxlX4lA9JoeD382dG-21" target="1ka-kstYS4A2FUigY-aL-4">
          <mxGeometry relative="1" as="geometry">
            <Array as="points">
              <mxPoint x="650" y="240" />
              <mxPoint x="660" y="240" />
            </Array>
          </mxGeometry>
        </mxCell>
        <mxCell id="s3GmxlX4lA9JoeD382dG-21" value="MUSICA" style="shape=table;startSize=30;container=1;collapsible=1;childLayout=tableLayout;fixedRows=1;rowLines=0;fontStyle=1;align=center;resizeLast=1;html=1;" vertex="1" parent="1">
          <mxGeometry x="560" y="70" width="180" height="150" as="geometry" />
        </mxCell>
        <mxCell id="s3GmxlX4lA9JoeD382dG-22" value="" style="shape=tableRow;horizontal=0;startSize=0;swimlaneHead=0;swimlaneBody=0;fillColor=none;collapsible=0;dropTarget=0;points=[[0,0.5],[1,0.5]];portConstraint=eastwest;top=0;left=0;right=0;bottom=1;" vertex="1" parent="s3GmxlX4lA9JoeD382dG-21">
          <mxGeometry y="30" width="180" height="30" as="geometry" />
        </mxCell>
        <mxCell id="s3GmxlX4lA9JoeD382dG-23" value="PK" style="shape=partialRectangle;connectable=0;fillColor=none;top=0;left=0;bottom=0;right=0;fontStyle=1;overflow=hidden;whiteSpace=wrap;html=1;" vertex="1" parent="s3GmxlX4lA9JoeD382dG-22">
          <mxGeometry width="30" height="30" as="geometry">
            <mxRectangle width="30" height="30" as="alternateBounds" />
          </mxGeometry>
        </mxCell>
        <mxCell id="s3GmxlX4lA9JoeD382dG-24" value="ID" style="shape=partialRectangle;connectable=0;fillColor=none;top=0;left=0;bottom=0;right=0;align=left;spacingLeft=6;fontStyle=5;overflow=hidden;whiteSpace=wrap;html=1;" vertex="1" parent="s3GmxlX4lA9JoeD382dG-22">
          <mxGeometry x="30" width="150" height="30" as="geometry">
            <mxRectangle width="150" height="30" as="alternateBounds" />
          </mxGeometry>
        </mxCell>
        <mxCell id="s3GmxlX4lA9JoeD382dG-25" value="" style="shape=tableRow;horizontal=0;startSize=0;swimlaneHead=0;swimlaneBody=0;fillColor=none;collapsible=0;dropTarget=0;points=[[0,0.5],[1,0.5]];portConstraint=eastwest;top=0;left=0;right=0;bottom=0;" vertex="1" parent="s3GmxlX4lA9JoeD382dG-21">
          <mxGeometry y="60" width="180" height="30" as="geometry" />
        </mxCell>
        <mxCell id="s3GmxlX4lA9JoeD382dG-26" value="" style="shape=partialRectangle;connectable=0;fillColor=none;top=0;left=0;bottom=0;right=0;editable=1;overflow=hidden;whiteSpace=wrap;html=1;" vertex="1" parent="s3GmxlX4lA9JoeD382dG-25">
          <mxGeometry width="30" height="30" as="geometry">
            <mxRectangle width="30" height="30" as="alternateBounds" />
          </mxGeometry>
        </mxCell>
        <mxCell id="s3GmxlX4lA9JoeD382dG-27" value="Row 1" style="shape=partialRectangle;connectable=0;fillColor=none;top=0;left=0;bottom=0;right=0;align=left;spacingLeft=6;overflow=hidden;whiteSpace=wrap;html=1;" vertex="1" parent="s3GmxlX4lA9JoeD382dG-25">
          <mxGeometry x="30" width="150" height="30" as="geometry">
            <mxRectangle width="150" height="30" as="alternateBounds" />
          </mxGeometry>
        </mxCell>
        <mxCell id="s3GmxlX4lA9JoeD382dG-28" value="" style="shape=tableRow;horizontal=0;startSize=0;swimlaneHead=0;swimlaneBody=0;fillColor=none;collapsible=0;dropTarget=0;points=[[0,0.5],[1,0.5]];portConstraint=eastwest;top=0;left=0;right=0;bottom=0;" vertex="1" parent="s3GmxlX4lA9JoeD382dG-21">
          <mxGeometry y="90" width="180" height="30" as="geometry" />
        </mxCell>
        <mxCell id="s3GmxlX4lA9JoeD382dG-29" value="FK" style="shape=partialRectangle;connectable=0;fillColor=none;top=0;left=0;bottom=0;right=0;editable=1;overflow=hidden;whiteSpace=wrap;html=1;" vertex="1" parent="s3GmxlX4lA9JoeD382dG-28">
          <mxGeometry width="30" height="30" as="geometry">
            <mxRectangle width="30" height="30" as="alternateBounds" />
          </mxGeometry>
        </mxCell>
        <mxCell id="s3GmxlX4lA9JoeD382dG-30" value="GENERO ID" style="shape=partialRectangle;connectable=0;fillColor=none;top=0;left=0;bottom=0;right=0;align=left;spacingLeft=6;overflow=hidden;whiteSpace=wrap;html=1;" vertex="1" parent="s3GmxlX4lA9JoeD382dG-28">
          <mxGeometry x="30" width="150" height="30" as="geometry">
            <mxRectangle width="150" height="30" as="alternateBounds" />
          </mxGeometry>
        </mxCell>
        <mxCell id="s3GmxlX4lA9JoeD382dG-31" value="" style="shape=tableRow;horizontal=0;startSize=0;swimlaneHead=0;swimlaneBody=0;fillColor=none;collapsible=0;dropTarget=0;points=[[0,0.5],[1,0.5]];portConstraint=eastwest;top=0;left=0;right=0;bottom=0;" vertex="1" parent="s3GmxlX4lA9JoeD382dG-21">
          <mxGeometry y="120" width="180" height="30" as="geometry" />
        </mxCell>
        <mxCell id="s3GmxlX4lA9JoeD382dG-32" value="FK" style="shape=partialRectangle;connectable=0;fillColor=none;top=0;left=0;bottom=0;right=0;editable=1;overflow=hidden;whiteSpace=wrap;html=1;" vertex="1" parent="s3GmxlX4lA9JoeD382dG-31">
          <mxGeometry width="30" height="30" as="geometry">
            <mxRectangle width="30" height="30" as="alternateBounds" />
          </mxGeometry>
        </mxCell>
        <mxCell id="s3GmxlX4lA9JoeD382dG-33" value="NICKNAME" style="shape=partialRectangle;connectable=0;fillColor=none;top=0;left=0;bottom=0;right=0;align=left;spacingLeft=6;overflow=hidden;whiteSpace=wrap;html=1;" vertex="1" parent="s3GmxlX4lA9JoeD382dG-31">
          <mxGeometry x="30" width="150" height="30" as="geometry">
            <mxRectangle width="150" height="30" as="alternateBounds" />
          </mxGeometry>
        </mxCell>
        <mxCell id="s3GmxlX4lA9JoeD382dG-34" value="LISTA_REPRODUCCION" style="shape=table;startSize=30;container=1;collapsible=1;childLayout=tableLayout;fixedRows=1;rowLines=0;fontStyle=1;align=center;resizeLast=1;html=1;" vertex="1" parent="1">
          <mxGeometry x="40" y="310" width="180" height="150" as="geometry" />
        </mxCell>
        <mxCell id="s3GmxlX4lA9JoeD382dG-35" value="" style="shape=tableRow;horizontal=0;startSize=0;swimlaneHead=0;swimlaneBody=0;fillColor=none;collapsible=0;dropTarget=0;points=[[0,0.5],[1,0.5]];portConstraint=eastwest;top=0;left=0;right=0;bottom=1;" vertex="1" parent="s3GmxlX4lA9JoeD382dG-34">
          <mxGeometry y="30" width="180" height="30" as="geometry" />
        </mxCell>
        <mxCell id="s3GmxlX4lA9JoeD382dG-36" value="PK" style="shape=partialRectangle;connectable=0;fillColor=none;top=0;left=0;bottom=0;right=0;fontStyle=1;overflow=hidden;whiteSpace=wrap;html=1;" vertex="1" parent="s3GmxlX4lA9JoeD382dG-35">
          <mxGeometry width="30" height="30" as="geometry">
            <mxRectangle width="30" height="30" as="alternateBounds" />
          </mxGeometry>
        </mxCell>
        <mxCell id="s3GmxlX4lA9JoeD382dG-37" value="ID" style="shape=partialRectangle;connectable=0;fillColor=none;top=0;left=0;bottom=0;right=0;align=left;spacingLeft=6;fontStyle=5;overflow=hidden;whiteSpace=wrap;html=1;" vertex="1" parent="s3GmxlX4lA9JoeD382dG-35">
          <mxGeometry x="30" width="150" height="30" as="geometry">
            <mxRectangle width="150" height="30" as="alternateBounds" />
          </mxGeometry>
        </mxCell>
        <mxCell id="s3GmxlX4lA9JoeD382dG-38" value="" style="shape=tableRow;horizontal=0;startSize=0;swimlaneHead=0;swimlaneBody=0;fillColor=none;collapsible=0;dropTarget=0;points=[[0,0.5],[1,0.5]];portConstraint=eastwest;top=0;left=0;right=0;bottom=0;" vertex="1" parent="s3GmxlX4lA9JoeD382dG-34">
          <mxGeometry y="60" width="180" height="30" as="geometry" />
        </mxCell>
        <mxCell id="s3GmxlX4lA9JoeD382dG-39" value="FK" style="shape=partialRectangle;connectable=0;fillColor=none;top=0;left=0;bottom=0;right=0;editable=1;overflow=hidden;whiteSpace=wrap;html=1;" vertex="1" parent="s3GmxlX4lA9JoeD382dG-38">
          <mxGeometry width="30" height="30" as="geometry">
            <mxRectangle width="30" height="30" as="alternateBounds" />
          </mxGeometry>
        </mxCell>
        <mxCell id="s3GmxlX4lA9JoeD382dG-40" value="NICKNAME" style="shape=partialRectangle;connectable=0;fillColor=none;top=0;left=0;bottom=0;right=0;align=left;spacingLeft=6;overflow=hidden;whiteSpace=wrap;html=1;" vertex="1" parent="s3GmxlX4lA9JoeD382dG-38">
          <mxGeometry x="30" width="150" height="30" as="geometry">
            <mxRectangle width="150" height="30" as="alternateBounds" />
          </mxGeometry>
        </mxCell>
        <mxCell id="s3GmxlX4lA9JoeD382dG-41" value="" style="shape=tableRow;horizontal=0;startSize=0;swimlaneHead=0;swimlaneBody=0;fillColor=none;collapsible=0;dropTarget=0;points=[[0,0.5],[1,0.5]];portConstraint=eastwest;top=0;left=0;right=0;bottom=0;" vertex="1" parent="s3GmxlX4lA9JoeD382dG-34">
          <mxGeometry y="90" width="180" height="30" as="geometry" />
        </mxCell>
        <mxCell id="s3GmxlX4lA9JoeD382dG-42" value="" style="shape=partialRectangle;connectable=0;fillColor=none;top=0;left=0;bottom=0;right=0;editable=1;overflow=hidden;whiteSpace=wrap;html=1;" vertex="1" parent="s3GmxlX4lA9JoeD382dG-41">
          <mxGeometry width="30" height="30" as="geometry">
            <mxRectangle width="30" height="30" as="alternateBounds" />
          </mxGeometry>
        </mxCell>
        <mxCell id="s3GmxlX4lA9JoeD382dG-43" value="Row 2" style="shape=partialRectangle;connectable=0;fillColor=none;top=0;left=0;bottom=0;right=0;align=left;spacingLeft=6;overflow=hidden;whiteSpace=wrap;html=1;" vertex="1" parent="s3GmxlX4lA9JoeD382dG-41">
          <mxGeometry x="30" width="150" height="30" as="geometry">
            <mxRectangle width="150" height="30" as="alternateBounds" />
          </mxGeometry>
        </mxCell>
        <mxCell id="s3GmxlX4lA9JoeD382dG-44" value="" style="shape=tableRow;horizontal=0;startSize=0;swimlaneHead=0;swimlaneBody=0;fillColor=none;collapsible=0;dropTarget=0;points=[[0,0.5],[1,0.5]];portConstraint=eastwest;top=0;left=0;right=0;bottom=0;" vertex="1" parent="s3GmxlX4lA9JoeD382dG-34">
          <mxGeometry y="120" width="180" height="30" as="geometry" />
        </mxCell>
        <mxCell id="s3GmxlX4lA9JoeD382dG-45" value="" style="shape=partialRectangle;connectable=0;fillColor=none;top=0;left=0;bottom=0;right=0;editable=1;overflow=hidden;whiteSpace=wrap;html=1;" vertex="1" parent="s3GmxlX4lA9JoeD382dG-44">
          <mxGeometry width="30" height="30" as="geometry">
            <mxRectangle width="30" height="30" as="alternateBounds" />
          </mxGeometry>
        </mxCell>
        <mxCell id="s3GmxlX4lA9JoeD382dG-46" value="Row 3" style="shape=partialRectangle;connectable=0;fillColor=none;top=0;left=0;bottom=0;right=0;align=left;spacingLeft=6;overflow=hidden;whiteSpace=wrap;html=1;" vertex="1" parent="s3GmxlX4lA9JoeD382dG-44">
          <mxGeometry x="30" width="150" height="30" as="geometry">
            <mxRectangle width="150" height="30" as="alternateBounds" />
          </mxGeometry>
        </mxCell>
        <mxCell id="s3GmxlX4lA9JoeD382dG-47" value="GENERO" style="shape=table;startSize=30;container=1;collapsible=1;childLayout=tableLayout;fixedRows=1;rowLines=0;fontStyle=1;align=center;resizeLast=1;html=1;" vertex="1" parent="1">
          <mxGeometry x="880" y="100" width="180" height="90" as="geometry" />
        </mxCell>
        <mxCell id="s3GmxlX4lA9JoeD382dG-48" value="" style="shape=tableRow;horizontal=0;startSize=0;swimlaneHead=0;swimlaneBody=0;fillColor=none;collapsible=0;dropTarget=0;points=[[0,0.5],[1,0.5]];portConstraint=eastwest;top=0;left=0;right=0;bottom=1;" vertex="1" parent="s3GmxlX4lA9JoeD382dG-47">
          <mxGeometry y="30" width="180" height="30" as="geometry" />
        </mxCell>
        <mxCell id="s3GmxlX4lA9JoeD382dG-49" value="PK" style="shape=partialRectangle;connectable=0;fillColor=none;top=0;left=0;bottom=0;right=0;fontStyle=1;overflow=hidden;whiteSpace=wrap;html=1;" vertex="1" parent="s3GmxlX4lA9JoeD382dG-48">
          <mxGeometry width="30" height="30" as="geometry">
            <mxRectangle width="30" height="30" as="alternateBounds" />
          </mxGeometry>
        </mxCell>
        <mxCell id="s3GmxlX4lA9JoeD382dG-50" value="ID" style="shape=partialRectangle;connectable=0;fillColor=none;top=0;left=0;bottom=0;right=0;align=left;spacingLeft=6;fontStyle=5;overflow=hidden;whiteSpace=wrap;html=1;" vertex="1" parent="s3GmxlX4lA9JoeD382dG-48">
          <mxGeometry x="30" width="150" height="30" as="geometry">
            <mxRectangle width="150" height="30" as="alternateBounds" />
          </mxGeometry>
        </mxCell>
        <mxCell id="s3GmxlX4lA9JoeD382dG-51" value="" style="shape=tableRow;horizontal=0;startSize=0;swimlaneHead=0;swimlaneBody=0;fillColor=none;collapsible=0;dropTarget=0;points=[[0,0.5],[1,0.5]];portConstraint=eastwest;top=0;left=0;right=0;bottom=0;" vertex="1" parent="s3GmxlX4lA9JoeD382dG-47">
          <mxGeometry y="60" width="180" height="30" as="geometry" />
        </mxCell>
        <mxCell id="s3GmxlX4lA9JoeD382dG-52" value="" style="shape=partialRectangle;connectable=0;fillColor=none;top=0;left=0;bottom=0;right=0;editable=1;overflow=hidden;whiteSpace=wrap;html=1;" vertex="1" parent="s3GmxlX4lA9JoeD382dG-51">
          <mxGeometry width="30" height="30" as="geometry">
            <mxRectangle width="30" height="30" as="alternateBounds" />
          </mxGeometry>
        </mxCell>
        <mxCell id="s3GmxlX4lA9JoeD382dG-53" value="DESCRIPCION" style="shape=partialRectangle;connectable=0;fillColor=none;top=0;left=0;bottom=0;right=0;align=left;spacingLeft=6;overflow=hidden;whiteSpace=wrap;html=1;" vertex="1" parent="s3GmxlX4lA9JoeD382dG-51">
          <mxGeometry x="30" width="150" height="30" as="geometry">
            <mxRectangle width="150" height="30" as="alternateBounds" />
          </mxGeometry>
        </mxCell>
        <mxCell id="s3GmxlX4lA9JoeD382dG-60" value="RELACION SIEMPRE DEL TIPO DE UNO A MUCHOS" style="text;html=1;strokeColor=none;fillColor=none;align=center;verticalAlign=middle;whiteSpace=wrap;rounded=0;" vertex="1" parent="1">
          <mxGeometry x="360" width="340" height="30" as="geometry" />
        </mxCell>
        <mxCell id="Xjsg9QyfDBSiNln9QNbn-1" style="edgeStyle=orthogonalEdgeStyle;rounded=0;orthogonalLoop=1;jettySize=auto;html=1;exitX=1;exitY=0.5;exitDx=0;exitDy=0;entryX=0;entryY=0.5;entryDx=0;entryDy=0;endArrow=ERmany;endFill=0;startArrow=ERone;startFill=0;" edge="1" parent="1" source="s3GmxlX4lA9JoeD382dG-12" target="s3GmxlX4lA9JoeD382dG-25">
          <mxGeometry relative="1" as="geometry">
            <Array as="points">
              <mxPoint x="360" y="135" />
              <mxPoint x="360" y="170" />
              <mxPoint x="460" y="170" />
              <mxPoint x="460" y="145" />
            </Array>
          </mxGeometry>
        </mxCell>
        <mxCell id="1ka-kstYS4A2FUigY-aL-3" style="edgeStyle=orthogonalEdgeStyle;rounded=0;orthogonalLoop=1;jettySize=auto;html=1;startArrow=ERmany;startFill=0;endArrow=ERone;endFill=0;" edge="1" parent="1" source="s3GmxlX4lA9JoeD382dG-25" target="s3GmxlX4lA9JoeD382dG-47">
          <mxGeometry relative="1" as="geometry" />
        </mxCell>
        <mxCell id="1ka-kstYS4A2FUigY-aL-18" style="edgeStyle=orthogonalEdgeStyle;rounded=0;orthogonalLoop=1;jettySize=auto;html=1;startArrow=ERmany;startFill=0;endArrow=ERone;endFill=0;" edge="1" parent="1" source="1ka-kstYS4A2FUigY-aL-4" target="s3GmxlX4lA9JoeD382dG-35">
          <mxGeometry relative="1" as="geometry">
            <Array as="points">
              <mxPoint x="300" y="425" />
              <mxPoint x="300" y="355" />
            </Array>
          </mxGeometry>
        </mxCell>
        <mxCell id="hBkBieBQEsqf4Ba3Tjjx-2" style="edgeStyle=orthogonalEdgeStyle;rounded=0;orthogonalLoop=1;jettySize=auto;html=1;" edge="1" parent="1" source="1ka-kstYS4A2FUigY-aL-4">
          <mxGeometry relative="1" as="geometry">
            <mxPoint x="250" y="530" as="targetPoint" />
            <Array as="points">
              <mxPoint x="655" y="520" />
              <mxPoint x="240" y="520" />
              <mxPoint x="240" y="1160" />
              <mxPoint x="660" y="1160" />
              <mxPoint x="660" y="1150" />
              <mxPoint x="250" y="1150" />
              <mxPoint x="250" y="1140" />
              <mxPoint x="660" y="1140" />
              <mxPoint x="660" y="1130" />
              <mxPoint x="250" y="1130" />
              <mxPoint x="250" y="1120" />
              <mxPoint x="660" y="1120" />
              <mxPoint x="660" y="1110" />
              <mxPoint x="250" y="1110" />
              <mxPoint x="250" y="1100" />
              <mxPoint x="660" y="1100" />
              <mxPoint x="660" y="1090" />
              <mxPoint x="250" y="1090" />
              <mxPoint x="250" y="1080" />
              <mxPoint x="660" y="1080" />
              <mxPoint x="660" y="1070" />
              <mxPoint x="250" y="1070" />
              <mxPoint x="250" y="1060" />
              <mxPoint x="660" y="1060" />
              <mxPoint x="660" y="1050" />
              <mxPoint x="250" y="1050" />
              <mxPoint x="250" y="1040" />
              <mxPoint x="660" y="1040" />
              <mxPoint x="660" y="1030" />
              <mxPoint x="250" y="1030" />
              <mxPoint x="250" y="1020" />
              <mxPoint x="660" y="1020" />
              <mxPoint x="660" y="1010" />
              <mxPoint x="250" y="1010" />
              <mxPoint x="250" y="1000" />
              <mxPoint x="660" y="1000" />
              <mxPoint x="660" y="990" />
              <mxPoint x="250" y="990" />
              <mxPoint x="250" y="980" />
              <mxPoint x="660" y="980" />
              <mxPoint x="660" y="970" />
              <mxPoint x="250" y="970" />
              <mxPoint x="250" y="960" />
              <mxPoint x="660" y="960" />
              <mxPoint x="660" y="950" />
              <mxPoint x="250" y="950" />
              <mxPoint x="250" y="940" />
              <mxPoint x="660" y="940" />
              <mxPoint x="660" y="930" />
              <mxPoint x="250" y="930" />
              <mxPoint x="250" y="920" />
              <mxPoint x="660" y="920" />
              <mxPoint x="660" y="910" />
              <mxPoint x="250" y="910" />
              <mxPoint x="250" y="900" />
              <mxPoint x="660" y="900" />
              <mxPoint x="660" y="890" />
              <mxPoint x="250" y="890" />
              <mxPoint x="250" y="880" />
              <mxPoint x="660" y="880" />
              <mxPoint x="660" y="870" />
              <mxPoint x="250" y="870" />
              <mxPoint x="250" y="860" />
              <mxPoint x="660" y="860" />
              <mxPoint x="660" y="850" />
              <mxPoint x="250" y="850" />
              <mxPoint x="250" y="840" />
              <mxPoint x="660" y="840" />
              <mxPoint x="660" y="830" />
              <mxPoint x="250" y="830" />
              <mxPoint x="250" y="820" />
              <mxPoint x="660" y="820" />
              <mxPoint x="660" y="810" />
              <mxPoint x="250" y="810" />
              <mxPoint x="250" y="800" />
              <mxPoint x="660" y="800" />
              <mxPoint x="660" y="790" />
              <mxPoint x="250" y="790" />
              <mxPoint x="250" y="780" />
              <mxPoint x="660" y="780" />
              <mxPoint x="660" y="770" />
              <mxPoint x="250" y="770" />
              <mxPoint x="250" y="760" />
              <mxPoint x="660" y="760" />
              <mxPoint x="660" y="750" />
              <mxPoint x="250" y="750" />
              <mxPoint x="250" y="740" />
              <mxPoint x="660" y="740" />
              <mxPoint x="660" y="730" />
              <mxPoint x="250" y="730" />
              <mxPoint x="250" y="720" />
              <mxPoint x="660" y="720" />
              <mxPoint x="660" y="710" />
              <mxPoint x="250" y="710" />
              <mxPoint x="250" y="700" />
              <mxPoint x="660" y="700" />
              <mxPoint x="660" y="690" />
              <mxPoint x="250" y="690" />
              <mxPoint x="250" y="680" />
              <mxPoint x="660" y="680" />
              <mxPoint x="660" y="670" />
              <mxPoint x="250" y="670" />
              <mxPoint x="250" y="660" />
              <mxPoint x="660" y="660" />
              <mxPoint x="660" y="650" />
              <mxPoint x="250" y="650" />
              <mxPoint x="250" y="640" />
              <mxPoint x="660" y="640" />
              <mxPoint x="660" y="630" />
              <mxPoint x="250" y="630" />
              <mxPoint x="250" y="620" />
              <mxPoint x="660" y="620" />
              <mxPoint x="660" y="610" />
              <mxPoint x="250" y="610" />
              <mxPoint x="250" y="600" />
              <mxPoint x="660" y="600" />
              <mxPoint x="660" y="590" />
              <mxPoint x="250" y="590" />
              <mxPoint x="250" y="580" />
              <mxPoint x="660" y="580" />
              <mxPoint x="660" y="570" />
              <mxPoint x="250" y="570" />
              <mxPoint x="250" y="560" />
              <mxPoint x="660" y="560" />
              <mxPoint x="660" y="550" />
              <mxPoint x="250" y="550" />
              <mxPoint x="250" y="540" />
              <mxPoint x="660" y="540" />
            </Array>
          </mxGeometry>
        </mxCell>
        <mxCell id="1ka-kstYS4A2FUigY-aL-4" value="LISTA_MUSICA" style="shape=table;startSize=30;container=1;collapsible=1;childLayout=tableLayout;fixedRows=1;rowLines=0;fontStyle=1;align=center;resizeLast=1;html=1;" vertex="1" parent="1">
          <mxGeometry x="550" y="380" width="210" height="90" as="geometry" />
        </mxCell>
        <mxCell id="1ka-kstYS4A2FUigY-aL-8" value="" style="shape=tableRow;horizontal=0;startSize=0;swimlaneHead=0;swimlaneBody=0;fillColor=none;collapsible=0;dropTarget=0;points=[[0,0.5],[1,0.5]];portConstraint=eastwest;top=0;left=0;right=0;bottom=0;" vertex="1" parent="1ka-kstYS4A2FUigY-aL-4">
          <mxGeometry y="30" width="210" height="30" as="geometry" />
        </mxCell>
        <mxCell id="1ka-kstYS4A2FUigY-aL-9" value="FK" style="shape=partialRectangle;connectable=0;fillColor=none;top=0;left=0;bottom=0;right=0;editable=1;overflow=hidden;whiteSpace=wrap;html=1;" vertex="1" parent="1ka-kstYS4A2FUigY-aL-8">
          <mxGeometry width="30" height="30" as="geometry">
            <mxRectangle width="30" height="30" as="alternateBounds" />
          </mxGeometry>
        </mxCell>
        <mxCell id="1ka-kstYS4A2FUigY-aL-10" value="LISTA_REPRODUCCION_ID" style="shape=partialRectangle;connectable=0;fillColor=none;top=0;left=0;bottom=0;right=0;align=left;spacingLeft=6;overflow=hidden;whiteSpace=wrap;html=1;" vertex="1" parent="1ka-kstYS4A2FUigY-aL-8">
          <mxGeometry x="30" width="180" height="30" as="geometry">
            <mxRectangle width="180" height="30" as="alternateBounds" />
          </mxGeometry>
        </mxCell>
        <mxCell id="1ka-kstYS4A2FUigY-aL-11" value="" style="shape=tableRow;horizontal=0;startSize=0;swimlaneHead=0;swimlaneBody=0;fillColor=none;collapsible=0;dropTarget=0;points=[[0,0.5],[1,0.5]];portConstraint=eastwest;top=0;left=0;right=0;bottom=0;" vertex="1" parent="1ka-kstYS4A2FUigY-aL-4">
          <mxGeometry y="60" width="210" height="30" as="geometry" />
        </mxCell>
        <mxCell id="1ka-kstYS4A2FUigY-aL-12" value="FK" style="shape=partialRectangle;connectable=0;fillColor=none;top=0;left=0;bottom=0;right=0;editable=1;overflow=hidden;whiteSpace=wrap;html=1;" vertex="1" parent="1ka-kstYS4A2FUigY-aL-11">
          <mxGeometry width="30" height="30" as="geometry">
            <mxRectangle width="30" height="30" as="alternateBounds" />
          </mxGeometry>
        </mxCell>
        <mxCell id="1ka-kstYS4A2FUigY-aL-13" value="MUSICA_ID" style="shape=partialRectangle;connectable=0;fillColor=none;top=0;left=0;bottom=0;right=0;align=left;spacingLeft=6;overflow=hidden;whiteSpace=wrap;html=1;" vertex="1" parent="1ka-kstYS4A2FUigY-aL-11">
          <mxGeometry x="30" width="180" height="30" as="geometry">
            <mxRectangle width="180" height="30" as="alternateBounds" />
          </mxGeometry>
        </mxCell>
        <mxCell id="hBkBieBQEsqf4Ba3Tjjx-1" value="MODELO RELACIONAL" style="text;strokeColor=none;align=center;fillColor=none;html=1;verticalAlign=middle;whiteSpace=wrap;rounded=0;strokeWidth=1;fontSize=14;" vertex="1" parent="1">
          <mxGeometry x="30" width="230" height="40" as="geometry" />
        </mxCell>
      </root>
    </mxGraphModel>
  </diagram>
</mxfile>
